<svg xmlns="http://www.w3.org/2000/svg" viewBox="0 0 1540 490" font-family="Georgia, 'Times New Roman', serif">
<path d="M235,215 C178,220 115,238 58,250" fill="none" stroke="#b8bcc2" stroke-width="1.4"/>
<circle cx="210.7" cy="217.8" r="3.5" fill="#9aa0a6"/>
<circle cx="186.0" cy="221.8" r="3.3" fill="#9aa0a6"/>
<circle cx="160.9" cy="226.8" r="3.2" fill="#9aa0a6"/>
<circle cx="137.5" cy="231.9" r="3.0" fill="#9aa0a6"/>
<circle cx="114.2" cy="237.3" r="2.9" fill="#9aa0a6"/>
<circle cx="92.8" cy="242.2" r="2.8" fill="#9aa0a6"/>
<circle cx="75.3" cy="246.2" r="2.7" fill="#9aa0a6"/>
<circle cx="58" cy="250" r="8.5" fill="#2b0b0b"/>
<text x="24" y="255" fill="#2b0b0b" font-style="italic" font-size="34" text-anchor="middle">E<tspan baseline-shift="sub" font-size="22">1</tspan></text>
<path d="M235,215 C288,178 348,108 405,58" fill="none" stroke="#b8bcc2" stroke-width="1.4"/>
<circle cx="257.6" cy="197.7" r="3.5" fill="#9aa0a6"/>
<circle cx="280.9" cy="177.3" r="3.3" fill="#9aa0a6"/>
<circle cx="304.7" cy="154.8" r="3.2" fill="#9aa0a6"/>
<circle cx="327.1" cy="132.8" r="3.0" fill="#9aa0a6"/>
<circle cx="349.7" cy="110.4" r="2.9" fill="#9aa0a6"/>
<circle cx="370.5" cy="90.0" r="2.8" fill="#9aa0a6"/>
<circle cx="387.8" cy="73.5" r="2.7" fill="#9aa0a6"/>
<circle cx="405" cy="58" r="8.5" fill="#2b0b0b"/>
<text x="422" y="42" fill="#2b0b0b" font-style="italic" font-size="34" text-anchor="middle">E<tspan baseline-shift="sub" font-size="22">2</tspan></text>
<path d="M235,215 C312,228 382,250 448,258" fill="none" stroke="#b8bcc2" stroke-width="1.4"/>
<circle cx="266.9" cy="220.9" r="3.5" fill="#9aa0a6"/>
<circle cx="298.1" cy="227.5" r="3.3" fill="#9aa0a6"/>
<circle cx="328.5" cy="234.4" r="3.2" fill="#9aa0a6"/>
<circle cx="356.2" cy="240.8" r="3.0" fill="#9aa0a6"/>
<circle cx="383.3" cy="246.8" r="2.9" fill="#9aa0a6"/>
<circle cx="407.9" cy="251.7" r="2.8" fill="#9aa0a6"/>
<circle cx="428.1" cy="255.2" r="2.7" fill="#9aa0a6"/>
<circle cx="448" cy="258" r="8.5" fill="#2b0b0b"/>
<text x="474" y="262" fill="#2b0b0b" font-style="italic" font-size="34" text-anchor="middle">E<tspan baseline-shift="sub" font-size="22">3</tspan></text>
<path d="M235,215 C258,292 298,362 328,418" fill="none" stroke="#b8bcc2" stroke-width="1.4"/>
<circle cx="245.6" cy="246.9" r="3.5" fill="#9aa0a6"/>
<circle cx="257.7" cy="277.9" r="3.3" fill="#9aa0a6"/>
<circle cx="271.0" cy="307.8" r="3.2" fill="#9aa0a6"/>
<circle cx="283.9" cy="334.5" r="3.0" fill="#9aa0a6"/>
<circle cx="297.0" cy="360.2" r="2.9" fill="#9aa0a6"/>
<circle cx="309.0" cy="382.8" r="2.8" fill="#9aa0a6"/>
<circle cx="318.7" cy="400.8" r="2.7" fill="#9aa0a6"/>
<circle cx="328" cy="418" r="8.5" fill="#2b0b0b"/>
<text x="320" y="454" fill="#2b0b0b" font-style="italic" font-size="34" text-anchor="middle">E<tspan baseline-shift="sub" font-size="22">4</tspan></text>
<circle cx="235" cy="215" r="11" fill="#2b0b0b"/>
<text x="222" y="256" fill="#2b0b0b" font-style="italic" font-size="34" text-anchor="middle">J<tspan baseline-shift="sub" font-size="22">0</tspan></text>
<line x1="755" y1="225" x2="570" y2="235" stroke="#800000" stroke-width="5" stroke-linecap="round"/>
<line x1="755" y1="225" x2="930" y2="60" stroke="#800000" stroke-width="5" stroke-linecap="round"/>
<line x1="755" y1="225" x2="970" y2="235" stroke="#800000" stroke-width="5" stroke-linecap="round"/>
<line x1="755" y1="225" x2="855" y2="420" stroke="#800000" stroke-width="5" stroke-linecap="round"/>
<circle cx="570" cy="235" r="9" fill="#2b0b0b"/>
<text x="544" y="272" fill="#2b0b0b" font-style="italic" font-size="34" text-anchor="middle">E<tspan baseline-shift="sub" font-size="22">1</tspan></text>
<text x="670" y="188" fill="#800000" font-style="italic" font-size="35" text-anchor="middle">S<tspan baseline-shift="sub" font-size="23">1</tspan></text>
<circle cx="930" cy="60" r="9" fill="#2b0b0b"/>
<text x="952" y="50" fill="#2b0b0b" font-style="italic" font-size="34" text-anchor="middle">E<tspan baseline-shift="sub" font-size="22">2</tspan></text>
<text x="838" y="118" fill="#800000" font-style="italic" font-size="35" text-anchor="middle">S<tspan baseline-shift="sub" font-size="23">2</tspan></text>
<circle cx="970" cy="235" r="9" fill="#2b0b0b"/>
<text x="1000" y="238" fill="#2b0b0b" font-style="italic" font-size="34" text-anchor="middle">E<tspan baseline-shift="sub" font-size="22">3</tspan></text>
<text x="882" y="188" fill="#800000" font-style="italic" font-size="35" text-anchor="middle">S<tspan baseline-shift="sub" font-size="23">3</tspan></text>
<circle cx="855" cy="420" r="9" fill="#2b0b0b"/>
<text x="855" y="458" fill="#2b0b0b" font-style="italic" font-size="34" text-anchor="middle">E<tspan baseline-shift="sub" font-size="22">4</tspan></text>
<text x="842" y="338" fill="#800000" font-style="italic" font-size="35" text-anchor="middle">S<tspan baseline-shift="sub" font-size="23">4</tspan></text>
<circle cx="755" cy="225" r="12" fill="#2b0b0b"/>
<text x="738" y="262" fill="#2b0b0b" font-style="italic" font-size="34" text-anchor="middle">J<tspan baseline-shift="sub" font-size="22">0</tspan></text>
<line x1="1295" y1="80" x2="1450" y2="235" stroke="#b0b0b0" stroke-width="1.6" stroke-dasharray="7 6"/>
<line x1="1450" y1="235" x2="1295" y2="390" stroke="#b0b0b0" stroke-width="1.6" stroke-dasharray="7 6"/>
<line x1="1295" y1="390" x2="1140" y2="235" stroke="#b0b0b0" stroke-width="1.6" stroke-dasharray="7 6"/>
<line x1="1140" y1="235" x2="1295" y2="80" stroke="#b0b0b0" stroke-width="1.6" stroke-dasharray="7 6"/>
<line x1="1295" y1="80" x2="1295" y2="390" stroke="#b0b0b0" stroke-width="1.6" stroke-dasharray="7 6"/>
<rect x="1065.0" y="185.0" width="150" height="100" rx="18" fill="#faf7f2" stroke="#c9c4bc" stroke-width="1.5"/><line x1="1183.9" y1="232.6" x2="1096.1" y2="237.4" stroke="#800000" stroke-width="4.5" stroke-linecap="round"/><circle cx="1183.9" cy="232.6" r="6" fill="#2b0b0b"/><circle cx="1096.1" cy="237.4" r="6" fill="#2b0b0b"/><text x="1098" y="211" fill="#800000" font-style="italic" font-size="34" text-anchor="middle">S<tspan baseline-shift="sub" font-size="22">1</tspan></text>
<rect x="1220.0" y="30.0" width="150" height="100" rx="18" fill="#faf7f2" stroke="#c9c4bc" stroke-width="1.5"/><line x1="1263.0" y1="110.2" x2="1327.0" y2="49.8" stroke="#800000" stroke-width="4.5" stroke-linecap="round"/><circle cx="1263.0" cy="110.2" r="6" fill="#2b0b0b"/><circle cx="1327.0" cy="49.8" r="6" fill="#2b0b0b"/><text x="1251" y="56" fill="#800000" font-style="italic" font-size="34" text-anchor="middle">S<tspan baseline-shift="sub" font-size="22">2</tspan></text>
<rect x="1375.0" y="185.0" width="150" height="100" rx="18" fill="#faf7f2" stroke="#c9c4bc" stroke-width="1.5"/><line x1="1406.0" y1="233.0" x2="1494.0" y2="237.0" stroke="#800000" stroke-width="4.5" stroke-linecap="round"/><circle cx="1406.0" cy="233.0" r="6" fill="#2b0b0b"/><circle cx="1494.0" cy="237.0" r="6" fill="#2b0b0b"/><text x="1494" y="211" fill="#800000" font-style="italic" font-size="34" text-anchor="middle">S<tspan baseline-shift="sub" font-size="22">3</tspan></text>
<rect x="1220.0" y="340.0" width="150" height="100" rx="18" fill="#faf7f2" stroke="#c9c4bc" stroke-width="1.5"/><line x1="1274.9" y1="350.8" x2="1315.1" y2="429.2" stroke="#800000" stroke-width="4.5" stroke-linecap="round"/><circle cx="1274.9" cy="350.8" r="6" fill="#2b0b0b"/><circle cx="1315.1" cy="429.2" r="6" fill="#2b0b0b"/><text x="1339" y="366" fill="#800000" font-style="italic" font-size="34" text-anchor="middle">S<tspan baseline-shift="sub" font-size="22">4</tspan></text>
</svg>